<svg width="36" height="36" viewBox="0 0 36 36" fill="none" xmlns="http://www.w3.org/2000/svg">
<circle cx="18" cy="18" r="17.5" fill="white" stroke="#E0E4ED"/>
<path d="M18.5 20.25C19.9525 20.25 21.125 19.0775 21.125 17.625V12.375C21.125 10.9225 19.9525 9.75 18.5 9.75C17.0475 9.75 15.875 10.9225 15.875 12.375L15.875 17.625C15.875 19.0775 17.0475 20.25 18.5 20.25Z" fill="black"/>
<path d="M22.875 17.625C22.875 20.04 20.915 22 18.5 22C16.085 22 14.125 20.04 14.125 17.625H12.375C12.375 20.7137 14.6588 23.2512 17.625 23.68V26.375H19.375V23.68C22.3412 23.2512 24.625 20.7137 24.625 17.625H22.875Z" fill="black"/>
</svg>
