<svg width="24" height="24" viewBox="0 0 24 24" fill="none" xmlns="http://www.w3.org/2000/svg">
  <path
    d="M20.45 5.43501L19.04 4.02501L17.25 5.82501L18.66 7.23501L20.45 5.43501ZM13 4.52501L11 4.52501L11 1.52501L13 1.52501L13 4.52501ZM23 13.525L20 13.525L20 11.525L23 11.525L23 13.525ZM11 20.475L11 16.515L10 15.935C8.76 15.215 8 13.895 8 12.475C8 10.265 9.79 8.47501 12 8.47501C14.21 8.47501 16 10.265 16 12.475C16 13.895 15.23 15.215 14 15.935L13 16.515L13 20.475L11 20.475ZM9 22.475L15 22.475L15 17.665C16.79 16.625 18 14.695 18 12.475C18 9.16501 15.31 6.47501 12 6.47501C8.69 6.47501 6 9.16501 6 12.475C6 14.695 7.21 16.625 9 17.665L9 22.475ZM4 13.525L1 13.525L1 11.525L4 11.525L4 13.525ZM6.76 5.81501L4.97 4.01501L3.56 5.42501L5.36 7.21501L6.76 5.81501Z"
    fill="currentColor" />
</svg>