<svg xmlns="http://www.w3.org/2000/svg" width="36" height="36" viewBox="0 0 36 36">
    <defs>
        <filter id="toeahqusoa">
            <feColorMatrix in="SourceGraphic" values="0 0 0 0 0.000000 0 0 0 0 0.054902 0 0 0 0 0.219608 0 0 0 1.000000 0"/>
        </filter>
    </defs>
    <g fill="none" fill-rule="evenodd">
        <g>
            <g transform="translate(-143 -88) translate(143 88)">
                <circle cx="18" cy="18" r="17.5" stroke="#000E38"/>
                <g filter="url(#toeahqusoa)" transform="translate(6 6)">
                    <g fill="#000">
                        <path d="M-0.743 7.666L18.983 8.204 19.76 9.501 -1.52 8.964z" transform="translate(2.697 3.284) rotate(-45 9.12 8.584)"/>
                        <path d="M7.286.995L6.291 0 3.866 2.425 1.442 0 .446.995 2.871 3.42.446 5.845 1.442 6.84 3.866 4.415 6.291 6.84 7.286 5.845 4.862 3.42zM12.365 15.632L10.136 13.403 9.118 14.414 12.365 17.661 18.686 11.339 17.676 10.328z" transform="translate(2.697 3.284)"/>
                    </g>
                </g>
            </g>
        </g>
    </g>
</svg>
