<svg width="21" height="21" viewBox="0 0 21 21" xmlns="http://www.w3.org/2000/svg">
    <g fill="none" fill-rule="evenodd">
        <path d="M0 0h21v21H0z"/>
        <path d="M5.14 18.796h3.526c0 .97-.794 1.763-1.763 1.763-.97 0-1.763-.793-1.763-1.763zm-1.763-.881h7.052v-1.763H3.377v1.763zM13.514 9.54c0 3.367-2.345 5.165-3.323 5.73H3.615C2.636 14.705.292 12.907.292 9.54a6.614 6.614 0 0 1 6.61-6.611 6.614 6.614 0 0 1 6.612 6.61zm-1.763 0a4.857 4.857 0 0 0-4.848-4.848A4.857 4.857 0 0 0 2.055 9.54c0 2.177 1.313 3.429 2.071 3.966H9.68c.759-.537 2.072-1.789 2.072-3.966zm6.056-1.878-1.208.556 1.208.555.555 1.207.555-1.207 1.208-.555-1.208-.556-.555-1.207-.555 1.207zm-2.09-1.207.83-1.816 1.815-.829-1.816-.828-.828-1.816-.829 1.816-1.816.828 1.816.829.829 1.816z" fill="#000" fill-rule="nonzero"/>
    </g>
</svg>
