<svg width="20" height="20" viewBox="0 0 20 20" fill="none" xmlns="http://www.w3.org/2000/svg">
<path d="M5.00002 15L3.08335 16.9167C2.81946 17.1805 2.51738 17.2396 2.1771 17.0937C1.83683 16.9479 1.66669 16.6875 1.66669 16.3125V3.33332C1.66669 2.87499 1.82988 2.48263 2.15627 2.15624C2.48266 1.82985 2.87502 1.66666 3.33335 1.66666H16.6667C17.125 1.66666 17.5174 1.82985 17.8438 2.15624C18.1702 2.48263 18.3334 2.87499 18.3334 3.33332V13.3333C18.3334 13.7917 18.1702 14.184 17.8438 14.5104C17.5174 14.8368 17.125 15 16.6667 15H5.00002ZM4.29169 13.3333H16.6667V3.33332H3.33335V14.2708L4.29169 13.3333ZM5.83335 11.6667H10.8334C11.0695 11.6667 11.2674 11.5868 11.4271 11.4271C11.5868 11.2674 11.6667 11.0694 11.6667 10.8333C11.6667 10.5972 11.5868 10.3993 11.4271 10.2396C11.2674 10.0799 11.0695 9.99999 10.8334 9.99999H5.83335C5.59724 9.99999 5.39933 10.0799 5.2396 10.2396C5.07988 10.3993 5.00002 10.5972 5.00002 10.8333C5.00002 11.0694 5.07988 11.2674 5.2396 11.4271C5.39933 11.5868 5.59724 11.6667 5.83335 11.6667ZM5.83335 9.16666H14.1667C14.4028 9.16666 14.6007 9.08679 14.7604 8.92707C14.9202 8.76735 15 8.56943 15 8.33332C15 8.09721 14.9202 7.89929 14.7604 7.73957C14.6007 7.57985 14.4028 7.49999 14.1667 7.49999H5.83335C5.59724 7.49999 5.39933 7.57985 5.2396 7.73957C5.07988 7.89929 5.00002 8.09721 5.00002 8.33332C5.00002 8.56943 5.07988 8.76735 5.2396 8.92707C5.39933 9.08679 5.59724 9.16666 5.83335 9.16666ZM5.83335 6.66666H14.1667C14.4028 6.66666 14.6007 6.58679 14.7604 6.42707C14.9202 6.26735 15 6.06943 15 5.83332C15 5.59721 14.9202 5.3993 14.7604 5.23957C14.6007 5.07985 14.4028 4.99999 14.1667 4.99999H5.83335C5.59724 4.99999 5.39933 5.07985 5.2396 5.23957C5.07988 5.3993 5.00002 5.59721 5.00002 5.83332C5.00002 6.06943 5.07988 6.26735 5.2396 6.42707C5.39933 6.58679 5.59724 6.66666 5.83335 6.66666Z" fill="#000D3C"/>
</svg>
