<?xml version="1.0" encoding="UTF-8"?>
<svg xmlns="http://www.w3.org/2000/svg" xmlns:xlink="http://www.w3.org/1999/xlink" width="40px" height="46px" viewBox="0 0 40 45" version="1.1">
<g id="surface1">
<path style=" stroke:none;fill-rule:nonzero;fill:rgb(0%,0%,0%);fill-opacity:1;" d="M 5.714844 2.8125 C 2.5625 2.8125 0 5.335938 0 8.4375 L 0 36.5625 C 0 39.664062 2.5625 42.1875 5.714844 42.1875 L 34.285156 42.1875 C 37.4375 42.1875 40 39.664062 40 36.5625 L 40 15.230469 C 40 13.738281 39.402344 12.304688 38.332031 11.25 L 31.429688 4.457031 C 30.355469 3.402344 28.902344 2.8125 27.382812 2.8125 Z M 5.714844 11.25 C 5.714844 9.695312 6.992188 8.4375 8.570312 8.4375 L 25.714844 8.4375 C 27.292969 8.4375 28.570312 9.695312 28.570312 11.25 L 28.570312 16.875 C 28.570312 18.429688 27.292969 19.6875 25.714844 19.6875 L 8.570312 19.6875 C 6.992188 19.6875 5.714844 18.429688 5.714844 16.875 Z M 20 36.5625 C 16.847656 36.5625 14.285156 34.039062 14.285156 30.9375 C 14.285156 27.835938 16.847656 25.3125 20 25.3125 C 23.152344 25.3125 25.714844 27.835938 25.714844 30.9375 C 25.714844 34.039062 23.152344 36.5625 20 36.5625 Z M 20 36.5625 "/>
</g>
</svg>
