<svg width="36" height="36" viewBox="0 0 36 36" xmlns="http://www.w3.org/2000/svg">
    <g fill="none" fill-rule="evenodd">
        <circle stroke="#E0E4ED" fill="#FFF" cx="18" cy="18" r="17.5"/>
        <path d="M17.99 8C23.52 8 28 12.48 28 18s-4.48 10-10.01 10C12.47 28 8 23.52 8 18s4.47-10 9.99-10zm.01 2c-4.42 0-8 3.58-8 8s3.58 8 8 8 8-3.58 8-8-3.58-8-8-8zm-3.45 10c.7 1.19 1.97 2 3.45 2 1.48 0 2.76-.81 3.45-2h1.67a5.495 5.495 0 0 1-10.24 0zm6.95-6a1.5 1.5 0 1 1 0 3 1.5 1.5 0 0 1 0-3zm-7 0a1.5 1.5 0 1 1 0 3 1.5 1.5 0 0 1 0-3z" fill="#000E38"/>
    </g>
</svg>
