<svg width="24" height="24" viewBox="0 0 24 24" xmlns="http://www.w3.org/2000/svg">
    <defs>
        <filter id="41vg2u5tja">
            <feColorMatrix in="SourceGraphic" values="0 0 0 0 0.466667 0 0 0 0 0.494118 0 0 0 0 0.568627 0 0 0 1.000000 0"/>
        </filter>
    </defs>
    <g transform="translate(-273 -8)" filter="url(#41vg2u5tja)" fill="none" fill-rule="evenodd">
        <path d="M273 8h24v24h-24z"/>
        <path d="M289.5 11c-1.74 0-3.41.81-4.5 2.09-1.09-1.28-2.76-2.09-4.5-2.09-3.08 0-5.5 2.42-5.5 5.5 0 3.78 3.4 6.86 8.55 11.54l1.45 1.31 1.45-1.32c5.15-4.67 8.55-7.75 8.55-11.53 0-3.08-2.42-5.5-5.5-5.5zm-4.4 15.55-.1.1-.1-.1c-4.76-4.31-7.9-7.16-7.9-10.05 0-2 1.5-3.5 3.5-3.5 1.54 0 3.04.99 3.57 2.36h1.87c.52-1.37 2.02-2.36 3.56-2.36 2 0 3.5 1.5 3.5 3.5 0 2.89-3.14 5.74-7.9 10.05z" fill="#777E91" fill-rule="nonzero"/>
    </g>
</svg>
