<svg xmlns="http://www.w3.org/2000/svg" width="29" height="29" viewBox="0 0 29 29">
    <g fill="none" fill-rule="evenodd">
        <g>
            <g>
                <path fill="#7AE6D8" d="M8.186 0v6.807L9.58 8.34v9.933L8.14 20.67V28H5.895v-8.03l1.438-2.398v-8.26L5.94 7.777V0h2.246zM2.291 0v8.499l1.393 1.533v7.005l-1.438 2.395V28H0v-9.269l1.438-2.395v-5.334L.045 9.468V0H2.29z" transform="translate(-295 -16) translate(295.5 16.5)"/>
                <path fill="#20C5B4" d="M27.955 0v10.496l-1.393 1.534v8.26L28 22.689V28h-2.247v-4.61l-1.437-2.398v-9.933l1.392-1.534V0h2.247zM16.947 0v5.028L15.038 6.85V28h-2.512V5.857l1.91-1.821V0h2.511zm5.895 0v7.339l-1.91 1.822V28h-2.51V8.168l1.908-1.822V0h2.512z" transform="translate(-295 -16) translate(295.5 16.5)"/>
            </g>
        </g>
    </g>
</svg>
