<svg xmlns="http://www.w3.org/2000/svg" width="24" height="24" viewBox="0 0 24 24">
    <g fill="none" fill-rule="evenodd">
        <g>
            <g>
                <g>
                    <path fill="#F57F7A" d="M0 0v16.422h24V0H0zm9.679 7.203h12.266V1.999H9.68v5.204zm-7.624 0h5.57V1.999h-5.57v5.204zm14.7 7.22h5.19V9.217h-5.19v5.204zm-14.7 0H14.7V9.217H2.055v5.204z" transform="translate(-31 -334) translate(15 311) translate(16 23)"/>
                    <path fill="#F1635F" d="M0 24h24v-9.474H0V24zm9.679-2.058h12.266v-5.358H9.68v5.358zm-7.624 0h5.57v-5.358h-5.57v5.358z" transform="translate(-31 -334) translate(15 311) translate(16 23)"/>
                </g>
            </g>
        </g>
    </g>
</svg>
