<svg xmlns="http://www.w3.org/2000/svg" width="24" height="24" viewBox="0 0 24 24">
    <g fill="none" fill-rule="evenodd">
        <g>
            <g>
                <g>
                    <g>
                        <path fill="#425BEE" d="M11.948 23.896C5.36 23.896 0 18.536 0 11.948S5.36 0 11.948 0s11.948 5.36 11.948 11.948-5.36 11.948-11.948 11.948m0-21.85c-5.46 0-9.902 4.442-9.902 9.902 0 5.46 4.442 9.902 9.902 9.902 5.46 0 9.902-4.442 9.902-9.902 0-5.46-4.442-9.902-9.902-9.902" transform="translate(-31 -490) translate(15 467) translate(16 23) translate(0 .104)"/>
                        <path fill="#97AEF1" d="M12 18.843c-3.83 0-6.947-3.116-6.947-6.947S8.169 4.948 12 4.948c3.83 0 6.947 3.117 6.947 6.948 0 3.83-3.116 6.947-6.947 6.947m0-11.862c-2.71 0-4.914 2.205-4.914 4.915S9.29 16.81 12 16.81c2.71 0 4.915-2.204 4.915-4.914 0-2.71-2.205-4.915-4.915-4.915" transform="translate(-31 -490) translate(15 467) translate(16 23) translate(0 .104)"/>
                    </g>
                </g>
            </g>
        </g>
    </g>
</svg>
