<svg xmlns="http://www.w3.org/2000/svg" width="29" height="29" viewBox="0 0 29 29">
    <g fill="none" fill-rule="evenodd">
        <g>
            <g>
                <path fill="#F57F7A" d="M13.193 12.428L0 12.428 0 14.835 8.119 14.835 0.522 18.079 1.457 20.294 8.801 17.159 3.16 22.833 4.852 24.535 10.687 18.666 7.596 26.361 9.815 27.263 14.807 14.835 28 14.835 28 12.428 19.881 12.428 27.478 9.185 26.543 6.969 19.199 10.105 24.841 4.431 23.148 2.728 17.313 8.598 20.404 0.902 18.185 0z" transform="translate(-98 5) translate(98.25 -4.5)"/>
                <path fill="#F1635F" d="M12.428 0L12.428 8.119 9.185 0.522 6.969 1.457 10.105 8.801 4.431 3.159 2.728 4.852 8.598 10.687 0.902 7.596 0 9.815 12.428 14.807 12.428 28 14.835 28 14.835 19.882 18.078 27.478 20.294 26.543 17.158 19.199 22.833 24.841 24.535 23.148 18.665 17.313 26.361 20.404 27.263 18.185 14.835 13.193 14.835 0z" transform="translate(-98 5) translate(98.25 -4.5)"/>
            </g>
        </g>
    </g>
</svg>
