<svg xmlns="http://www.w3.org/2000/svg" width="29" height="29" viewBox="0 0 29 29">
    <g fill="none" fill-rule="evenodd">
        <g>
            <g>
                <g>
                    <path fill="#783AF0" d="M13.951 0c7.693 0 13.951 6.258 13.951 13.95h-.013c.01.18.014.36.014.543H25.54v-.022h-.065c0-3.268-2.63-5.927-5.863-5.927-3.233 0-5.863 2.659-5.863 5.927h-2.426c0-4.17 3.03-7.638 6.98-8.274-.452-.073-.917-.11-1.391-.11-4.757 0-8.627 3.77-8.627 8.406H5.92c0-5.923 4.931-10.741 10.991-10.741 1.162 0 2.283.177 3.336.505-1.813-1.18-3.976-1.868-6.297-1.868C7.576 2.389 2.39 7.575 2.39 13.95H0C0 6.258 6.258 0 13.951 0z" transform="translate(-223 -37) translate(223.25 37.5) translate(0 .021)"/>
                    <path fill="#A377F8" d="M2.397 13.979c0 .256.009.51.025.762.374 2.802 2.78 4.971 5.683 4.971 3.162 0 5.734-2.572 5.734-5.733h2.372c0 4.469-3.636 8.105-8.106 8.105h-.084c.945.352 1.966.544 3.032.544 4.784 0 8.676-3.88 8.676-8.65h2.376c0 6.095-4.958 11.053-11.052 11.053-.217 0-.432-.006-.645-.018 1.13.369 2.338.568 3.592.568 6.398 0 11.603-5.205 11.603-11.602H28c0 7.72-6.28 14-14 14s-14-6.28-14-14h2.397z" transform="translate(-223 -37) translate(223.25 37.5) translate(0 .021)"/>
                </g>
            </g>
        </g>
    </g>
</svg>
