<?xml version="1.0" encoding="UTF-8"?>
<svg width="24px" height="24px" viewBox="0 0 24 24" version="1.1" xmlns="http://www.w3.org/2000/svg" xmlns:xlink="http://www.w3.org/1999/xlink">
    <title>546560B1-04AE-45C5-9E73-FE651A01CE14</title>
    <g id="Lock-/-Unlock-Modules" stroke="none" stroke-width="1" fill="none" fill-rule="evenodd">
        <g id="320px/Unlock-Tile" transform="translate(-11.000000, -380.000000)" fill="#E0E4ED">
            <g id="Icon-24px-/-Lock" transform="translate(11.000000, 380.000000)">
                <path d="M16.5,9.25 L15.75,9.25 L15.75,7.75 C15.75,5.68 14.07,4 12,4 C9.93,4 8.25,5.68 8.25,7.75 L8.25,9.25 L7.5,9.25 C6.675,9.25 6,9.925 6,10.75 L6,18.25 C6,19.075 6.675,19.75 7.5,19.75 L16.5,19.75 C17.325,19.75 18,19.075 18,18.25 L18,10.75 C18,9.925 17.325,9.25 16.5,9.25 Z M12,16 C11.175,16 10.5,15.325 10.5,14.5 C10.5,13.675 11.175,13 12,13 C12.825,13 13.5,13.675 13.5,14.5 C13.5,15.325 12.825,16 12,16 Z M14.325,9.25 L9.675,9.25 L9.675,7.75 C9.675,6.4675 10.7175,5.425 12,5.425 C13.2825,5.425 14.325,6.4675 14.325,7.75 L14.325,9.25 Z" id="Shape"></path>
            </g>
        </g>
    </g>
</svg>