<svg xmlns="http://www.w3.org/2000/svg" width="29" height="29" viewBox="0 0 29 29">
    <g fill="none" fill-rule="evenodd">
        <g>
            <g>
                <g>
                    <path fill="#425BEE" d="M10.316 12.526L12.526 12.526 12.526 0 10.316 0zM25.789 28L28 28 28 15.474 25.789 15.474zM0 12.526L2.211 12.526 2.211 0 0 0zM15.474 28L17.684 28 17.684 15.474 15.474 15.474zM5.158 12.526L7.368 12.526 7.368 0 5.158 0zM20.632 28L22.842 28 22.842 15.474 20.632 15.474z" transform="translate(-24 -41) translate(24.25 41.5)"/>
                    <path fill="#97AEF1" d="M15.474 12.526L28 12.526 28 10.316 15.474 10.316zM0 28L12.526 28 12.526 25.789 0 25.789zM0 17.684L12.526 17.684 12.526 15.474 0 15.474zM15.474 7.368L28 7.368 28 5.158 15.474 5.158zM0 22.842L12.526 22.842 12.526 20.632 0 20.632z" transform="translate(-24 -41) translate(24.25 41.5)"/>
                </g>
                <path fill="#97AEF1" d="M15.474 2.211L28 2.211 28 0 15.474 0z" transform="translate(-24 -41) translate(24.25 41.5)"/>
            </g>
        </g>
    </g>
</svg>
