<svg width="36" height="36" viewBox="0 0 36 36" fill="none" xmlns="http://www.w3.org/2000/svg">
<circle cx="18" cy="18" r="17.5" fill="white" stroke="#E0E4ED"/>
<path fill-rule="evenodd" clip-rule="evenodd" d="M24.667 8.83301V11.333H27.167V12.9997H24.667V15.4913C24.667 15.4913 23.0087 15.4997 23.0003 15.4913V12.9997H20.5003C20.5003 12.9997 20.5087 11.3413 20.5003 11.333H23.0003V8.83301H24.667ZM23.0003 24.6663L11.3337 24.6663L11.3337 12.9997L18.8337 12.9997V11.333L11.3337 11.333C10.417 11.333 9.66699 12.083 9.66699 12.9997L9.66699 24.6663C9.66699 25.583 10.417 26.333 11.3337 26.333L23.0003 26.333C23.917 26.333 24.667 25.583 24.667 24.6663L24.667 17.1663H23.0003L23.0003 24.6663ZM16.5087 22.0247L14.8753 20.058L12.5837 22.9997L21.7503 22.9997L18.8003 19.0747L16.5087 22.0247Z" fill="#3A4049"/>
</svg>
