<svg xmlns="http://www.w3.org/2000/svg" width="24" height="24" viewBox="0 0 24 24">
  <path
    d="M7.125 5.625c-1.2427 0 -2.25 1.0073 -2.25 2.25s1.0073 2.25 2.25 2.25s2.25 -1.0073 2.25 -2.25S8.3672 5.625 7.125 5.625zM20.9578 1.5h-18C1.343 1.5 -0.0004 2.843 -0.0004 4.5v15c0 1.657 1.343 3 2.9578 3h18c1.657 0 3 -1.343 3 -3V4.5C23.9578 2.843 22.6547 1.5 20.9578 1.5zM21.7078 19.1859l-6.4125 -8.7141C15.1781 10.2563 14.9109 10.125 14.625 10.125c-0.2865 0 -0.5541 0.1297 -0.713 0.3459l-4.9969 6.7547l-1.7386 -2.1609c-0.1613 -0.2006 -0.4188 -0.3192 -0.6923 -0.3192c-0.2738 0 -0.5311 0.1185 -0.6928 0.3192l-3.54 4.3973c0 -0.0014 0 0.0014 0 0L2.2495 4.5c0 -0.4135 0.3365 -0.75 0.75 -0.75h18c0.4135 0 0.75 0.3365 0.75 0.75V19.1859z"
    fill="currentColor" />
</svg>
