<svg width="17" height="16" viewBox="0 0 17 16" fill="none" xmlns="http://www.w3.org/2000/svg">
    <path fill-rule="evenodd" clip-rule="evenodd"
          d="M16.2 8C16.2 12.416 12.624 16 8.20795 16C3.78395 16 0.199951 12.416 0.199951 8C0.199951 3.584 3.78395 0 8.20795 0C12.624 0 16.2 3.584 16.2 8ZM14.6 8C14.6 4.464 11.736 1.6 8.19995 1.6C4.66395 1.6 1.79995 4.464 1.79995 8C1.79995 11.536 4.66395 14.4 8.19995 14.4C11.736 14.4 14.6 11.536 14.6 8ZM8.79995 12H7.19995V7.2H8.79995V12ZM7.19995 5.6H8.79995V4H7.19995V5.6Z"
          fill="#3A4049"/>
</svg>
