<svg xmlns="http://www.w3.org/2000/svg" width="24" height="25" viewBox="0 0 24 25">
    <g fill="none" fill-rule="evenodd">
        <g fill="#F9FAFB">
            <g>
                <g>
                    <path d="M12.008 4C16.424 4 20 7.584 20 12s-3.576 8-7.992 8C7.584 20 4 16.416 4 12s3.584-8 8.008-8zM12 5.6c-3.536 0-6.4 2.864-6.4 6.4 0 3.536 2.864 6.4 6.4 6.4 3.536 0 6.4-2.864 6.4-6.4 0-3.536-2.864-6.4-6.4-6.4zm.8 5.6V16h-1.6v-4.8h1.6zm0-3.2v1.6h-1.6V8h1.6z" transform="translate(-39 -234) translate(30 223) rotate(-180 16.5 18)"/>
                </g>
            </g>
        </g>
    </g>
</svg>
