<svg width="24" height="24" viewBox="0 0 24 24" fill="none" xmlns="http://www.w3.org/2000/svg">
  <path fill-rule="evenodd" fill="currentColor"
    d="M19.727 5.408L18.761 7.524L17.795 5.408L15.679 4.442L17.795 3.476L18.761 1.36L19.727 3.476L21.843 4.442L19.727 5.408ZM16.193 11.12C16.193 15.045 13.46 17.14 12.319 17.798H4.655C3.515 17.14 0.782 15.045 0.782 11.12C0.782 6.867 4.234 3.415 8.487 3.415C12.741 3.415 16.193 6.867 16.193 11.12ZM4.378 20.88V18.825H12.597V20.88H4.378ZM8.487 23.962C9.617 23.962 10.542 23.038 10.542 21.907H6.432C6.432 23.038 7.357 23.962 8.487 23.962ZM8.487 5.469C11.6 5.469 14.138 8.007 14.138 11.12C14.138 13.658 12.607 15.116 11.723 15.743H5.251C4.367 15.116 2.837 13.658 2.837 11.12C2.837 8.007 5.374 5.469 8.487 5.469ZM21.196 8.932L19.789 9.579L21.196 10.226L21.843 11.634L22.491 10.226L23.898 9.579L22.491 8.932L21.843 7.524L21.196 8.932Z" />
</svg>
