<svg width="35" height="35.3" viewBox="0 10 35 35.3" fill="none" xmlns="http://www.w3.org/2000/svg">
<path fill-rule="evenodd" clip-rule="evenodd" d="M28.8649 17.9538L27.4444 21.0667L26.024 17.9538L22.9111 16.5333L26.024 15.1129L27.4444 12L28.8649 15.1129L31.9778 16.5333L28.8649 17.9538ZM23.6667 26.3556C23.6667 32.128 19.6471 35.2107 17.9698 36.1778H6.69689C5.01956 35.2107 1 32.128 1 26.3556C1 20.0996 6.07733 15.0222 12.3333 15.0222C18.5893 15.0222 23.6667 20.0996 23.6667 26.3556ZM6.28889 40.7111V37.6889H18.3778V40.7111H6.28889ZM12.3333 45.2444C13.9956 45.2444 15.3556 43.8844 15.3556 42.2222H9.31111C9.31111 43.8844 10.6711 45.2444 12.3333 45.2444ZM12.3333 18.0444C16.912 18.0444 20.6444 21.7769 20.6444 26.3556C20.6444 30.088 18.3929 32.2338 17.0933 33.1556H7.57333C6.27378 32.2338 4.02222 30.088 4.02222 26.3556C4.02222 21.7769 7.75467 18.0444 12.3333 18.0444ZM31.0258 23.1369L28.9556 24.0889L31.0258 25.0409L31.9778 27.1111L32.9298 25.0409L35 24.0889L32.9298 23.1369L31.9778 21.0667L31.0258 23.1369Z" fill="black"/>
</svg>
