<svg xmlns="http://www.w3.org/2000/svg" width="24" height="24" viewBox="0 0 24 24">
    <g fill="none" fill-rule="evenodd">
        <g fill="#F9FAFB">
            <g>
                <g>
                    <path d="M4 10.5c-.83 0-1.5.67-1.5 1.5s.67 1.5 1.5 1.5 1.5-.67 1.5-1.5-.67-1.5-1.5-1.5zm0-5c-.83 0-1.5.67-1.5 1.5S3.17 8.5 4 8.5 5.5 7.83 5.5 7 4.83 5.5 4 5.5zm0 10c-.83 0-1.5.68-1.5 1.5s.68 1.5 1.5 1.5 1.5-.68 1.5-1.5-.67-1.5-1.5-1.5zM7 18h14v-2H7v2zm0-5h14v-2H7v2zm0-7v2h14V6H7z" transform="translate(-85 -405) translate(65 397) translate(20 8)"/>
                </g>
            </g>
        </g>
    </g>
</svg>
