<svg width="50" height="50" viewBox="0 0 50 50" fill="none" xmlns="http://www.w3.org/2000/svg">
<path d="M26.042 29.6875C29.068 29.6875 31.5107 27.2448 31.5107 24.2188V13.2812C31.5107 10.2552 29.068 7.8125 26.042 7.8125C23.016 7.8125 20.5732 10.2552 20.5732 13.2812V24.2188C20.5732 27.2448 23.016 29.6875 26.042 29.6875Z" fill="black"/>
<path d="M35.1562 24.2188C35.1562 29.25 31.0729 33.3333 26.0417 33.3333C21.0104 33.3333 16.9271 29.25 16.9271 24.2188H13.2812C13.2812 30.6536 18.0391 35.9401 24.2188 36.8333V42.4479H27.8646V36.8333C34.0443 35.9401 38.8021 30.6536 38.8021 24.2188L35.1562 24.2188Z" fill="black"/>
</svg>
