<?xml version="1.0" encoding="UTF-8"?>
<svg width="40px" height="40px" viewBox="0 0 40 40" version="1.1" xmlns="http://www.w3.org/2000/svg" xmlns:xlink="http://www.w3.org/1999/xlink">
    <title>188654C2-6B4D-42D2-ACFC-D66DE3DFC34F</title>
    <defs>
        <filter id="filter-1">
            <feColorMatrix in="SourceGraphic" type="matrix" values="0 0 0 0 0.000000 0 0 0 0 0.054902 0 0 0 0 0.219608 0 0 0 1.000000 0"></feColorMatrix>
        </filter>
    </defs>
    <g id="Lock-/-Unlock-Modules" stroke="none" stroke-width="1" fill="none" fill-rule="evenodd">
        <g id="320px/Unlock-Tile/Final-Screen-Unlock-Notification/Animation" transform="translate(-140.000000, -102.000000)">
            <g id="CTA-/-light-/-L-/-back" transform="translate(140.000000, 102.000000)">
                <circle id="outline" stroke="#E0E4ED" fill="#FFFFFF" cx="20" cy="20" r="19.5"></circle>
                <g id="lock_open-24px" transform="translate(20.000000, 20.000000) rotate(-360.000000) translate(-20.000000, -20.000000) translate(6.666667, 6.666667)" filter="url(#filter-1)">
                    <g transform="translate(6.666667, 4.444444)">
                        <path d="M6.66666667,13.3333333 C7.58333333,13.3333333 8.33333333,12.5833333 8.33333333,11.6666667 C8.33333333,10.75 7.58333333,10 6.66666667,10 C5.75,10 5,10.75 5,11.6666667 C5,12.5833333 5.75,13.3333333 6.66666667,13.3333333 Z M11.6666667,5.83333333 L10.8333333,5.83333333 L10.8333333,4.16666667 C10.8333333,1.86666667 8.96666667,0 6.66666667,0 C4.36666667,0 2.5,1.86666667 2.5,4.16666667 L4.08333333,4.16666667 C4.08333333,2.74166667 5.24166667,1.58333333 6.66666667,1.58333333 C8.09166667,1.58333333 9.25,2.74166667 9.25,4.16666667 L9.25,5.83333333 L1.66666667,5.83333333 C0.75,5.83333333 0,6.58333333 0,7.5 L0,15.8333333 C0,16.75 0.75,17.5 1.66666667,17.5 L11.6666667,17.5 C12.5833333,17.5 13.3333333,16.75 13.3333333,15.8333333 L13.3333333,7.5 C13.3333333,6.58333333 12.5833333,5.83333333 11.6666667,5.83333333 Z M11.6666667,15.8333333 L1.66666667,15.8333333 L1.66666667,7.5 L11.6666667,7.5 L11.6666667,15.8333333 Z" id="Shape" fill="#000000" fill-rule="nonzero"></path>
                    </g>
                </g>
            </g>
        </g>
    </g>
</svg>