<svg width="40" height="40" viewBox="0 0 40 40" xmlns="http://www.w3.org/2000/svg">
    <g fill="none" fill-rule="evenodd">
        <circle stroke="#E0E4ED" fill="#FFF" cx="20" cy="20" r="19.5"/>
        <path d="m10 29.049 4.316-12.065 7.819 7.726L10 29.049zm2.343-2.344 7.286-2.598-4.71-4.733-2.576 7.331zm8.724-6.125-.789-.789 5.569-5.568c.495-.495 1.121-.747 1.88-.754.757-.008 1.384.236 1.879.73l.394.395-.789.789-.44-.441c-.295-.294-.635-.445-1.022-.452-.386-.008-.734.143-1.044.452l-5.638 5.638zm-3.689-3.596-.789-.79.696-.695c.356-.356.522-.762.5-1.218a1.688 1.688 0 0 0-.5-1.149l-.65-.65.79-.788.603.603c.541.541.808 1.218.8 2.03-.007.812-.282 1.489-.823 2.03l-.627.627zm1.88 1.786-.79-.789 3.527-3.526c.294-.294.437-.67.43-1.126-.008-.456-.159-.83-.453-1.125l-1.415-1.415.789-.789 1.461 1.462c.48.495.727 1.117.743 1.867.015.75-.224 1.373-.72 1.868l-3.572 3.573zm3.665 3.69-.788-.79 1.09-1.09a2.742 2.742 0 0 1 1.949-.835 2.579 2.579 0 0 1 1.949.789l1.183 1.183-.789.789-1.206-1.207c-.356-.355-.727-.533-1.114-.533-.386 0-.758.178-1.113.533l-1.16 1.16z" fill="#000" fill-rule="nonzero"/>
    </g>
</svg>
