<svg width="16" height="19" viewBox="0 0 16 19" fill="none" xmlns="http://www.w3.org/2000/svg">
    <path fill-rule="evenodd" clip-rule="evenodd"
          d="M8 3C12.42 3 16 6.58 16 11C16 15.08 12.95 18.44 9 18.93V16.91C11.83 16.43 14 13.97 14 11C14 7.69 11.31 5 8 5C7.97614 5 7.95 5.00228 7.92267 5.00466C7.89273 5.00727 7.86137 5.01 7.83 5.01L8.91 6.09L7.5 7.5L4 4L7.5 0.5L8.91 1.92L7.82 3.01C7.85 3.01 7.88 3.0075 7.91 3.005C7.94 3.0025 7.97 3 8 3ZM3.76 6.76C2.67 7.85 2 9.35 2 11C2 13.97 4.17 16.43 7 16.91V18.93C3.05 18.44 0 15.08 0 11C0 8.79 0.9 6.79 2.34 5.34L3.76 6.76Z"
          fill="#777E91"/>
</svg>
