<svg width="36" height="36" viewBox="0 0 36 36" xmlns="http://www.w3.org/2000/svg">
    <path d="M17.985 3C26.28 3 33 9.72 33 18c0 8.28-6.72 15-15.015 15C9.705 33 3 26.28 3 18 3 9.72 9.705 3 17.985 3zM18 6C11.37 6 6 11.37 6 18s5.37 12 12 12 12-5.37 12-12S24.63 6 18 6zm0 13.5a8.243 8.243 0 0 1 7.68 5.25h-2.505c-1.035-1.785-2.955-3-5.175-3-2.22 0-4.125 1.215-5.175 3H10.32A8.243 8.243 0 0 1 18 19.5zm5.25-7.5a2.25 2.25 0 1 1 0 4.5 2.25 2.25 0 0 1 0-4.5zm-10.5 0a2.25 2.25 0 1 1 0 4.5 2.25 2.25 0 0 1 0-4.5z" fill="#3A4049" fill-rule="evenodd"/>
</svg>
