<svg width="40" height="40" viewBox="0 0 40 40" xmlns="http://www.w3.org/2000/svg">
    <g fill="none" fill-rule="evenodd">
        <circle stroke="#E0E4ED" fill="#FFF" cx="20" cy="20" r="19.5"/>
        <path d="M19.989 8.889c6.144 0 11.122 4.978 11.122 11.111 0 6.133-4.978 11.111-11.122 11.111-6.133 0-11.1-4.978-11.1-11.111 0-6.133 4.967-11.111 11.1-11.111zM20 11.11A8.886 8.886 0 0 0 11.111 20 8.886 8.886 0 0 0 20 28.889 8.886 8.886 0 0 0 28.889 20 8.886 8.886 0 0 0 20 11.111zm0 10c2.589 0 4.8 1.611 5.689 3.889h-1.856A4.427 4.427 0 0 0 20 22.778c-1.644 0-3.056.9-3.833 2.222H14.31A6.106 6.106 0 0 1 20 21.111zm3.889-5.555a1.667 1.667 0 1 1 0 3.333 1.667 1.667 0 0 1 0-3.333zm-7.778 0a1.667 1.667 0 1 1 0 3.333 1.667 1.667 0 0 1 0-3.333z" fill="#000E38"/>
    </g>
</svg>
