<svg width="24" height="24" viewBox="0 0 24 24" xmlns="http://www.w3.org/2000/svg">
    <path d="M17.5 15.74a2.67 2.67 0 0 0-1.797.706l-6.536-3.804A3 3 0 0 0 9.25 12a3 3 0 0 0-.083-.642l6.463-3.767a2.738 2.738 0 0 0 1.87.742 2.746 2.746 0 0 0 2.75-2.75 2.746 2.746 0 0 0-2.75-2.75 2.746 2.746 0 0 0-2.75 2.75 3 3 0 0 0 .082.642L8.37 9.993A2.738 2.738 0 0 0 6.5 9.25 2.746 2.746 0 0 0 3.75 12a2.746 2.746 0 0 0 2.75 2.75c.724 0 1.375-.284 1.87-.742l6.527 3.813a2.586 2.586 0 0 0-.074.596 2.68 2.68 0 0 0 2.677 2.676 2.68 2.68 0 0 0 2.677-2.676A2.68 2.68 0 0 0 17.5 15.74z" fill="#000E38" fill-rule="evenodd"/>
</svg>
