<svg xmlns="http://www.w3.org/2000/svg" width="80" height="80" viewBox="0 0 80 80">
    <g fill="none" fill-rule="evenodd">
        <g>
            <g transform="translate(-120 -51) translate(120 51)">
                <circle cx="40" cy="40" r="40" fill="#F9FAFB"/>
                <g>
                    <path fill="#97AEF1" d="M40.845 12.145c3.4 0 6.155-2.703 6.155-6.036C47 2.774 44.244.07 40.845.07c-3.399 0-6.155 2.703-6.155 6.038 0 3.333 2.756 6.036 6.155 6.036M23.91 41.781c-2.699 0-4.886-2.146-4.886-4.793 0-2.648 2.187-4.794 4.886-4.794 6.133 0 11.397-4.485 12.246-10.431.374-2.622 2.845-4.45 5.516-4.083 2.672.367 4.535 2.79 4.161 5.413C44.313 33.747 34.888 41.78 23.91 41.78" transform="translate(17 20)"/>
                    <path fill="#425BEE" d="M23.097 41.781c-11.145 0-20.578-8.093-21.94-18.826-.33-2.599 1.57-4.965 4.244-5.285 2.677-.322 5.11 1.526 5.44 4.124.76 5.99 6.03 10.508 12.256 10.508 2.694 0 4.88 2.122 4.88 4.74 0 2.618-2.186 4.74-4.88 4.74M6.184 12.115c3.415 0 6.184-2.712 6.184-6.057C12.368 2.712 9.6 0 6.184 0S0 2.712 0 6.058c0 3.345 2.769 6.057 6.184 6.057" transform="translate(17 20)"/>
                </g>
            </g>
        </g>
    </g>
</svg>
