<svg width="24" height="24" viewBox="0 0 24 24" xmlns="http://www.w3.org/2000/svg">
  <path
    d="M8.1 21.2125C6.88333 20.6875 5.825 19.975 4.925 19.075C4.025 18.175 3.3125 17.1167 2.7875 15.9C2.2625 14.6833 2 13.3833 2 12C2 10.6167 2.2625 9.31667 2.7875 8.1C3.3125 6.88333 4.025 5.825 4.925 4.925C5.825 4.025 6.88333 3.3125 8.1 2.7875C9.31667 2.2625 10.6167 2 12 2C13.3833 2 14.6833 2.2625 15.9 2.7875C17.1167 3.3125 18.175 4.025 19.075 4.925C19.975 5.825 20.6875 6.88333 21.2125 8.1C21.7375 9.31667 22 10.6167 22 12C22 13.3833 21.7375 14.6833 21.2125 15.9C20.6875 17.1167 19.975 18.175 19.075 19.075C18.175 19.975 17.1167 20.6875 15.9 21.2125C14.6833 21.7375 13.3833 22 12 22C10.6167 22 9.31667 21.7375 8.1 21.2125ZM17.675 17.675C19.225 16.125 20 14.2333 20 12C20 9.76667 19.225 7.875 17.675 6.325C16.125 4.775 14.2333 4 12 4C9.76667 4 7.875 4.775 6.325 6.325C4.775 7.875 4 9.76667 4 12C4 14.2333 4.775 16.125 6.325 17.675C7.875 19.225 9.76667 20 12 20C14.2333 20 16.125 19.225 17.675 17.675ZM7.75 16.25C6.58333 15.0833 6 13.6667 6 12C6 10.3333 6.58333 8.91667 7.75 7.75C8.91667 6.58333 10.3333 6 12 6C13.6667 6 15.0833 6.58333 16.25 7.75C17.4167 8.91667 18 10.3333 18 12C18 13.6667 17.4167 15.0833 16.25 16.25C15.0833 17.4167 13.6667 18 12 18C10.3333 18 8.91667 17.4167 7.75 16.25ZM14.825 14.825C15.6083 14.0417 16 13.1 16 12C16 10.9 15.6083 9.95833 14.825 9.175C14.0417 8.39167 13.1 8 12 8C10.9 8 9.95833 8.39167 9.175 9.175C8.39167 9.95833 8 10.9 8 12C8 13.1 8.39167 14.0417 9.175 14.825C9.95833 15.6083 10.9 16 12 16C13.1 16 14.0417 15.6083 14.825 14.825ZM10.5875 13.4125C10.1958 13.0208 10 12.55 10 12C10 11.45 10.1958 10.9792 10.5875 10.5875C10.9792 10.1958 11.45 10 12 10C12.55 10 13.0208 10.1958 13.4125 10.5875C13.8042 10.9792 14 11.45 14 12C14 12.55 13.8042 13.0208 13.4125 13.4125C13.0208 13.8042 12.55 14 12 14C11.45 14 10.9792 13.8042 10.5875 13.4125Z" />
</svg>