<svg width="21" height="21" viewBox="0 0 21 21" xmlns="http://www.w3.org/2000/svg">
    <g fill="none" fill-rule="evenodd">
        <path d="M0 0h21v21H0V0zm0 0h21v21H0V0z"/>
        <path d="M1.75 1.75h17.5v17.5H1.75V1.75zm0 0h17.5v17.5H1.75V1.75z"/>
        <path d="M12.688 3.938H6.125c-.605 0-1.123.364-1.342.89l-2.202 5.14a1.44 1.44 0 0 0-.102.532v1.458c0 .802.656 1.459 1.458 1.459H8.54l-.693 3.332-.022.233c0 .3.124.576.32.773l.774.766 4.805-4.805a1.45 1.45 0 0 0 .423-1.028V5.396c0-.802-.656-1.458-1.459-1.458zm0 8.75-3.165 3.164.977-3.894H3.937V10.5l2.188-5.104h6.563v7.292zm2.916-8.75h2.917v8.75h-2.917v-8.75z" fill="#3A4049" fill-rule="nonzero"/>
    </g>
</svg>
