<svg width="21" height="21" viewBox="0 0 21 21" xmlns="http://www.w3.org/2000/svg">
    <g fill="none" fill-rule="evenodd">
        <path d="M0 0h21v21H0V0zm0 0h21v21H0V0z"/>
        <path d="M8.114 18.534h7.159a1.58 1.58 0 0 0 1.463-.97l2.403-5.608c.071-.183.111-.374.111-.581v-1.59c0-.876-.716-1.592-1.59-1.592h-5.02l.755-3.635.024-.255c0-.326-.135-.628-.35-.843l-.843-.835-5.242 5.242a1.581 1.581 0 0 0-.461 1.122v7.954c0 .875.716 1.591 1.59 1.591zm0-9.545 3.452-3.453L10.5 9.784h7.16v1.591l-2.387 5.568h-7.16V8.99zm-6.364 0h3.182v9.545H1.75V8.99z" fill="#3A4049" fill-rule="nonzero"/>
    </g>
</svg>
