<svg width="48" height="49" viewBox="0 0 48 49" fill="none" xmlns="http://www.w3.org/2000/svg">
    <g clip-path="url(#clip0_3269_701)">
        <path d="M41.0295 23.3408C41.0295 20.8902 39.7153 18.7001 37.6212 17.5587C37.8764 16.0671 37.5483 14.5383 36.6786 13.2592C35.7804 11.9382 34.4394 11.0728 32.9138 10.8045C32.8141 9.732 32.3807 8.72532 31.6523 7.9024C30.6969 6.82288 29.3255 6.20374 27.8899 6.20374C26.1794 6.20374 24.6661 7.06745 23.7531 8.38459C22.84 7.06745 21.3267 6.20374 19.6162 6.20374C18.1806 6.20374 16.8093 6.82288 15.8539 7.9024C15.1254 8.72532 14.6921 9.7321 14.5923 10.8045C13.0668 11.0728 11.7258 11.9382 10.8276 13.2591C9.95773 14.5382 9.62966 16.0671 9.8848 17.5587C7.79043 18.7001 6.47632 20.8902 6.47632 23.3408C6.47632 25.4919 7.489 27.4506 9.17846 28.6745C8.20652 30.2591 8.06012 32.1662 8.81329 33.9612C9.73659 36.1615 11.8071 37.5832 14.0882 37.5832C14.2658 37.5832 14.4444 37.5747 14.6236 37.558C14.7648 38.5348 15.1849 39.462 15.8419 40.2096C16.7982 41.2976 18.1737 41.9216 19.6161 41.9216C21.3266 41.9216 22.84 41.0579 23.753 39.7407C24.666 41.0579 26.1794 41.9216 27.8898 41.9216C29.3319 41.9216 30.7075 41.2977 31.6637 40.2098C32.321 39.462 32.7412 38.535 32.8823 37.558C33.0613 37.5747 33.2398 37.5832 33.4171 37.5832C33.4173 37.5832 33.4176 37.5832 33.4179 37.5832C35.6991 37.5829 37.7696 36.161 38.6928 33.9606C39.4458 32.1658 39.2995 30.2589 38.3275 28.6745C40.0169 27.4506 41.0295 25.4919 41.0295 23.3408ZM22.8437 36.8309H22.8436C22.8436 38.6013 21.3957 40.0417 19.6161 40.0417C18.6853 40.0417 17.8003 39.6421 17.188 38.9455C16.7312 38.4257 16.4619 37.7927 16.4022 37.1207C18.0418 36.4478 18.4653 35.2991 18.7832 34.4342C19.0502 33.7077 19.1842 33.343 19.9452 33.1322C20.4303 32.9979 20.7182 32.4824 20.5882 31.981C20.4582 31.4796 19.9594 31.1818 19.4746 31.3164C17.8147 31.7762 17.3919 32.9265 17.0831 33.7665C16.7721 34.6126 16.5667 35.1716 15.2624 35.5328C15.2613 35.5332 15.2603 35.5336 15.2592 35.5338C15.2582 35.5341 15.2572 35.5342 15.2562 35.5345C14.8633 35.6463 14.4703 35.7031 14.0882 35.7031C12.5321 35.7031 11.1164 34.7257 10.4818 33.2129C9.87444 31.7658 10.14 30.2079 11.1922 29.0458C11.3902 28.827 11.4755 28.5237 11.4218 28.2292C11.368 27.9349 11.1816 27.6845 10.92 27.5554C9.30086 26.7561 8.2949 25.1411 8.2949 23.3408C8.2949 21.3986 9.46471 19.6823 11.2751 18.9684C11.7304 18.7888 11.9678 18.2703 11.8135 17.7925C11.4358 16.6229 11.6186 15.3646 12.3152 14.3403C13.0461 13.2654 14.2099 12.6305 15.5088 12.597C17.0554 12.6008 17.3968 13.2389 17.8685 14.1213C18.2982 14.9252 18.8866 16.0261 20.469 16.0261C20.9711 16.0261 21.3783 15.6053 21.3783 15.0862C21.3783 14.5671 20.9711 14.1463 20.469 14.1463C20.0004 14.1463 19.8778 13.9932 19.4602 13.2121C18.9979 12.3473 18.3293 11.098 16.4288 10.7887C16.5229 10.1935 16.784 9.63632 17.1955 9.17142C17.8074 8.48019 18.6897 8.08372 19.6161 8.08372C21.3957 8.08372 22.8436 9.52409 22.8436 11.2946V24.008C20.7087 23.7934 20.1752 22.7844 19.5214 21.544C18.8815 20.33 18.0853 18.8191 15.6919 18.5574C15.193 18.5036 14.7449 18.8771 14.6921 19.3933C14.6392 19.9095 15.0012 20.3723 15.5007 20.427C16.9449 20.5849 17.3346 21.3242 17.9244 22.4434C18.1379 22.8485 18.3657 23.2793 18.6556 23.6951C18.1764 24.1983 17.4536 24.7196 16.6336 25.1399C16.1837 25.3706 15.9998 25.9346 16.2228 26.3996C16.3815 26.7305 16.7035 26.9223 17.0382 26.9223C17.1739 26.9223 17.3116 26.8908 17.4415 26.8242C18.4603 26.302 19.3361 25.6634 19.9651 24.9974C20.6531 25.4513 21.5699 25.7854 22.8437 25.8928V36.8309ZM36.5859 27.5556C36.3243 27.6847 36.138 27.935 36.0842 28.2294C36.0304 28.5239 36.1158 28.8271 36.3138 29.046C37.3657 30.208 37.6313 31.7657 37.0243 33.2127C36.3896 34.7256 34.9738 35.7032 33.4175 35.7033C33.4175 35.7033 33.4172 35.7033 33.417 35.7033C33.0354 35.7033 32.6426 35.6465 32.2497 35.5347C32.2486 35.5344 32.2476 35.5343 32.2465 35.5339C32.2454 35.5336 32.2445 35.5333 32.2435 35.533C30.9391 35.1717 30.7338 34.6128 30.4227 33.7666C30.114 32.9267 29.6912 31.7763 28.0313 31.3166C27.5465 31.1821 27.0477 31.4798 26.9177 31.9812C26.7876 32.4826 27.0755 32.9981 27.5606 33.1324C28.3216 33.3432 28.4557 33.7079 28.7226 34.4344C29.0406 35.2993 29.4641 36.448 31.1036 37.1209C31.044 37.7929 30.7746 38.4259 30.3177 38.9457C29.7055 39.6423 28.8205 40.0418 27.8897 40.0418C26.1101 40.0418 24.6623 38.6014 24.6623 36.831V30.1022C24.6643 28.4122 25.525 27.5712 26.331 27.3481C27.3317 27.0705 28.38 27.6098 29.0008 28.7212C29.2518 29.1708 29.8077 29.3248 30.2429 29.0652C30.6778 28.8057 30.8268 28.2308 30.5757 27.7813C29.5472 25.9397 27.6526 25.036 25.8603 25.5322C25.4211 25.6538 25.0196 25.8502 24.6623 26.1086V20.0457C26.5744 20.2133 27.1472 20.9369 27.8488 21.8234C28.469 22.6073 29.1721 23.4956 30.6859 23.9933C30.7775 24.0234 30.8703 24.0378 30.9617 24.0378C31.347 24.0378 31.7049 23.7824 31.8279 23.3824C31.9801 22.8877 31.7156 22.3591 31.2369 22.2018C30.2378 21.8733 29.8047 21.326 29.2564 20.6332C28.4129 19.5674 27.4668 18.3725 24.6623 18.162V11.2947C24.6623 9.52418 26.1101 8.08381 27.8897 8.08381C28.8162 8.08381 29.6986 8.48028 30.3103 9.17151C30.7218 9.6365 30.9829 10.1935 31.0771 10.7888C29.1764 11.0981 28.5078 12.3474 28.0456 13.2122C27.6281 13.9933 27.5055 14.1464 27.0369 14.1464C26.5348 14.1464 26.1276 14.5672 26.1276 15.0863C26.1276 15.6054 26.5348 16.0262 27.0369 16.0262C28.6191 16.0262 29.2076 14.9253 29.6374 14.1214C30.1089 13.239 30.4504 12.6009 31.9971 12.5971C33.296 12.6305 34.4597 13.2655 35.1907 14.3405C35.8871 15.3648 36.07 16.623 35.6922 17.7925C35.5379 18.2703 35.7753 18.7888 36.2306 18.9685C38.041 19.6825 39.2108 21.3988 39.2108 23.3409C39.2109 25.1412 38.205 26.7561 36.5859 27.5556Z" fill="#000E38"/>
        <path d="M33.459 22.4998H33.4473C32.9393 22.4998 32.5273 22.9206 32.5273 23.4397C32.5273 23.9588 32.9393 24.3796 33.4473 24.3796H33.459C33.967 24.3796 34.3789 23.9588 34.3789 23.4397C34.3789 22.9207 33.9671 22.4998 33.459 22.4998Z" fill="#000E38"/>
        <path d="M15.209 26.6833C15.1094 26.1742 14.624 25.8442 14.1266 25.9459C14.1133 25.9485 14.1007 25.9513 14.0875 25.9544C13.5923 26.0708 13.2833 26.5753 13.3972 27.0812C13.495 27.5162 13.8738 27.8106 14.2928 27.8106C14.3593 27.8106 14.427 27.8031 14.4946 27.7877C14.9887 27.6826 15.3082 27.1898 15.209 26.6833Z" fill="#000E38"/>
        <path d="M23.5506 0C23.0426 0 22.6306 0.420813 22.6306 0.939944V2.81983C22.6306 3.33896 23.0426 3.75978 23.5506 3.75978C24.0586 3.75978 24.4705 3.33896 24.4705 2.81983V0.939944C24.4705 0.420813 24.0586 0 23.5506 0Z" fill="#000E38"/>
        <path d="M13.9519 5.19586L13.032 3.56787C12.778 3.1183 12.2153 2.96434 11.7753 3.22385C11.3353 3.48337 11.1845 4.05824 11.4386 4.50782L12.3586 6.1358C12.529 6.43743 12.8381 6.60596 13.1562 6.60596C13.3122 6.60596 13.4704 6.56526 13.6152 6.47982C14.0552 6.2203 14.206 5.64543 13.9519 5.19586Z" fill="#000E38"/>
        <path d="M6.00535 12.6272L4.41182 11.6873C3.97172 11.4276 3.40908 11.5818 3.15517 12.0314C2.90108 12.4809 3.05186 13.0558 3.49187 13.3153L5.0854 14.2553C5.23029 14.3407 5.38843 14.3813 5.54445 14.3813C5.86239 14.3813 6.17167 14.2127 6.34205 13.9112C6.59613 13.4616 6.44536 12.8867 6.00535 12.6272Z" fill="#000E38"/>
        <path d="M2.75984 23.1227H0.919945C0.411951 23.1227 0 23.5435 0 24.0626C0 24.5818 0.411951 25.0026 0.919945 25.0026H2.75984C3.26783 25.0026 3.67978 24.5818 3.67978 24.0626C3.67978 23.5435 3.26783 23.1227 2.75984 23.1227Z" fill="#000E38"/>
        <path d="M6.34205 34.2141C6.08823 33.7646 5.52569 33.6106 5.0854 33.87L3.49187 34.81C3.05186 35.0695 2.90108 35.6444 3.15517 36.0939C3.32555 36.3954 3.63474 36.5641 3.95276 36.5641C4.10879 36.5641 4.26693 36.5234 4.41182 36.438L6.00535 35.4981C6.44536 35.2386 6.59613 34.6637 6.34205 34.2141Z" fill="#000E38"/>
        <path d="M13.6152 41.6454C13.175 41.3857 12.6126 41.5399 12.3586 41.9895L11.4386 43.6174C11.1845 44.067 11.3353 44.6419 11.7753 44.9014C11.9202 44.9869 12.0783 45.0276 12.2344 45.0276C12.5523 45.0276 12.8616 44.8589 13.032 44.5574L13.9519 42.9294C14.206 42.4799 14.0552 41.9051 13.6152 41.6454Z" fill="#000E38"/>
        <path d="M23.5506 44.3655C23.0426 44.3655 22.6306 44.7863 22.6306 45.3054V47.1853C22.6306 47.7044 23.0426 48.1253 23.5506 48.1253C24.0586 48.1253 24.4705 47.7044 24.4705 47.1853V45.3054C24.4705 44.7863 24.0586 44.3655 23.5506 44.3655Z" fill="#000E38"/>
        <path d="M35.6628 43.6175L34.7429 41.9895C34.4888 41.5399 33.9264 41.386 33.4863 41.6455C33.0462 41.905 32.8955 42.4799 33.1496 42.9294L34.0695 44.5574C34.24 44.859 34.5491 45.0276 34.8671 45.0276C35.0231 45.0276 35.1813 44.9869 35.3261 44.9015C35.7662 44.6419 35.9169 44.0671 35.6628 43.6175Z" fill="#000E38"/>
        <path d="M43.6094 34.81L42.0161 33.8701C41.576 33.6106 41.0134 33.7646 40.7594 34.2141C40.5053 34.6637 40.6561 35.2385 41.0961 35.4981L42.6895 36.438C42.8344 36.5234 42.9925 36.5641 43.1485 36.5641C43.4665 36.5641 43.7757 36.3955 43.9461 36.094C44.2002 35.6445 44.0494 35.0696 43.6094 34.81Z" fill="#000E38"/>
        <path d="M46.1815 23.1227H44.3416C43.8336 23.1227 43.4216 23.5435 43.4216 24.0626C43.4216 24.5818 43.8336 25.0026 44.3416 25.0026H46.1815C46.6895 25.0026 47.1014 24.5818 47.1014 24.0626C47.1014 23.5435 46.6895 23.1227 46.1815 23.1227Z" fill="#000E38"/>
        <path d="M43.9459 12.0313C43.6919 11.5818 43.1292 11.4276 42.6892 11.6873L41.0959 12.6272C40.6559 12.8867 40.5051 13.4616 40.7592 13.9112C40.9296 14.2128 41.2387 14.3813 41.5568 14.3813C41.7128 14.3813 41.871 14.3406 42.0158 14.2552L43.6092 13.3152C44.0492 13.0557 44.2 12.4808 43.9459 12.0313Z" fill="#000E38"/>
        <path d="M35.3261 3.22382C34.886 2.96411 34.3234 3.11826 34.0695 3.56783L33.1496 5.19582C32.8955 5.64539 33.0462 6.22026 33.4863 6.47978C33.6311 6.56532 33.7893 6.60592 33.9453 6.60592C34.2632 6.60592 34.5725 6.43729 34.7429 6.13576L35.6628 4.50778C35.9169 4.0582 35.7662 3.48333 35.3261 3.22382Z" fill="#000E38"/>
    </g>
    <defs>
        <clipPath id="clip0_3269_701">
            <rect width="47.1014" height="48.1253" fill="white"/>
        </clipPath>
    </defs>
</svg>