<svg width="42" height="42" viewBox="0 0 42 42" fill="none" xmlns="http://www.w3.org/2000/svg">
    <path d="M24.9375 40.6875C24.658 40.6875 24.4007 40.509 24.3115 40.2281C24.2734 40.1428 24.045 39.9499 23.8875 39.8567C21.9319 38.7109 19.7217 33.6446 19.4762 33.0711L17.4012 25.0622C17.3277 24.7787 17.451 24.4807 17.703 24.3324C18.9827 23.5804 19.9684 23.6473 20.5748 23.8363C21.424 24.1027 22.1222 24.7774 22.5895 25.788L23.625 27.951V15.75C23.625 14.3023 24.8024 13.125 26.25 13.125C27.6977 13.125 28.875 14.3023 28.875 15.75V22.6656C29.2609 22.4411 29.7098 22.3125 30.1875 22.3125C31.1417 22.3125 31.9765 22.8231 32.4372 23.5856C32.8939 23.2011 33.4832 22.9688 34.125 22.9688C35.2682 22.9688 36.2434 23.7037 36.603 24.7249C37.0204 24.4453 37.5231 24.2812 38.0625 24.2812C39.5102 24.2812 40.6875 25.4586 40.6875 26.9062V37.4062C40.6875 39.2149 39.2162 40.6875 37.4063 40.6875H30.8438C30.4815 40.6875 30.1875 40.3935 30.1875 40.0312C30.1875 39.669 30.4815 39.375 30.8438 39.375H37.4063C38.4917 39.375 39.375 38.4917 39.375 37.4062V26.9062C39.375 26.1831 38.787 25.5938 38.0625 25.5938C37.338 25.5938 36.75 26.1831 36.75 26.9062C36.75 27.2685 36.456 27.5625 36.0938 27.5625C35.7315 27.5625 35.4375 27.2685 35.4375 26.9062V25.5938C35.4375 24.8706 34.8495 24.2812 34.125 24.2812C33.4005 24.2812 32.8125 24.8706 32.8125 25.5938C32.8125 25.956 32.5185 26.25 32.1563 26.25C31.794 26.25 31.5 25.956 31.5 25.5938V24.9375C31.5 24.2143 30.912 23.625 30.1875 23.625C29.463 23.625 28.875 24.2143 28.875 24.9375C28.875 25.2998 28.581 25.5938 28.2188 25.5938C27.8565 25.5938 27.5625 25.2998 27.5625 24.9375V15.75C27.5625 15.0268 26.9745 14.4375 26.25 14.4375C25.5255 14.4375 24.9375 15.0268 24.9375 15.75V30.8438C24.9375 31.1496 24.7249 31.416 24.4257 31.4843C24.1238 31.5551 23.8219 31.4029 23.688 31.1272L21.4017 26.3458C21.1838 25.8746 20.7979 25.2801 20.1824 25.0884C19.7807 24.9637 19.3187 25.0136 18.8016 25.2407L20.7139 32.6497C21.3019 34.0056 23.2064 37.9391 24.5517 38.7266C24.7433 38.8395 25.3772 39.2503 25.5623 39.8357C25.6712 40.1809 25.4796 40.5497 25.1344 40.6586C25.0701 40.6783 25.0032 40.6875 24.9375 40.6875Z" fill="#000E38"/>
    <path d="M25.5938 11.1562C25.4258 11.1562 25.2578 11.0919 25.1292 10.9646L21.848 7.68337C21.592 7.42743 21.592 7.01137 21.848 6.75543C22.1039 6.49949 22.52 6.49949 22.7759 6.75543L25.5938 9.57205L33.0042 2.16168C33.2601 1.90574 33.6762 1.90574 33.9321 2.16168C34.1881 2.41762 34.1881 2.83368 33.9321 3.08962L26.0571 10.9646C25.9298 11.0919 25.7618 11.1562 25.5938 11.1562Z" fill="#000E38"/>
    <path d="M13.7812 15.75H3.28125C2.19581 15.75 1.3125 14.8667 1.3125 13.7812V3.28125C1.3125 2.19581 2.19581 1.3125 3.28125 1.3125H13.7812C14.8667 1.3125 15.75 2.19581 15.75 3.28125V13.7812C15.75 14.8667 14.8667 15.75 13.7812 15.75ZM3.28125 2.625C2.92031 2.625 2.625 2.919 2.625 3.28125V13.7812C2.625 14.1435 2.92031 14.4375 3.28125 14.4375H13.7812C14.1422 14.4375 14.4375 14.1435 14.4375 13.7812V3.28125C14.4375 2.919 14.1422 2.625 13.7812 2.625H3.28125Z" fill="#000E38"/>
    <path d="M13.7812 32.8125H3.28125C2.19581 32.8125 1.3125 31.9292 1.3125 30.8438V20.3438C1.3125 19.2583 2.19581 18.375 3.28125 18.375H13.7812C14.8667 18.375 15.75 19.2583 15.75 20.3438V30.8438C15.75 31.9292 14.8667 32.8125 13.7812 32.8125ZM3.28125 19.6875C2.92031 19.6875 2.625 19.9815 2.625 20.3438V30.8438C2.625 31.206 2.92031 31.5 3.28125 31.5H13.7812C14.1422 31.5 14.4375 31.206 14.4375 30.8438V20.3438C14.4375 19.9815 14.1422 19.6875 13.7812 19.6875H3.28125Z" fill="#000E38"/>
    <path d="M21.6562 15.75H20.3438C19.2583 15.75 18.375 14.8667 18.375 13.7812V3.28125C18.375 2.19581 19.2583 1.3125 20.3438 1.3125H30.8438C31.206 1.3125 31.5 1.6065 31.5 1.96875C31.5 2.331 31.206 2.625 30.8438 2.625H20.3438C19.9828 2.625 19.6875 2.919 19.6875 3.28125V13.7812C19.6875 14.1435 19.9828 14.4375 20.3438 14.4375H21.6562C22.0185 14.4375 22.3125 14.7315 22.3125 15.0938C22.3125 15.456 22.0185 15.75 21.6562 15.75Z" fill="#000E38"/>
    <path d="M30.8438 15.75H28.2188C27.8565 15.75 27.5625 15.456 27.5625 15.0938C27.5625 14.7315 27.8565 14.4375 28.2188 14.4375H30.8438C31.2047 14.4375 31.5 14.1435 31.5 13.7812V7.21875C31.5 6.8565 31.794 6.5625 32.1562 6.5625C32.5185 6.5625 32.8125 6.8565 32.8125 7.21875V13.7812C32.8125 14.8667 31.9292 15.75 30.8438 15.75Z" fill="#000E38"/>
</svg>