<svg width="45" height="45" viewBox="0 0 45 45" fill="none" xmlns="http://www.w3.org/2000/svg">
    <path d="M14.5495 8.58337H15.8564C16.7283 8.55349 16.7292 7.2949 15.8564 7.26501H14.5495C13.6776 7.2949 13.6767 8.55349 14.5495 8.58337Z" fill="#000E38"/>
    <path d="M17.9597 8.58337H24.5023C24.6771 8.58337 24.8448 8.51392 24.9684 8.3903C25.0921 8.26668 25.1615 8.09902 25.1615 7.92419C25.1615 7.74937 25.0921 7.5817 24.9684 7.45808C24.8448 7.33446 24.6771 7.26501 24.5023 7.26501H17.9597C17.0887 7.2949 17.0852 8.55261 17.9597 8.58337Z" fill="#000E38"/>
    <path d="M27.5301 9.75586H14.5496C14.3747 9.75586 14.2071 9.82531 14.0835 9.94893C13.9598 10.0725 13.8904 10.2402 13.8904 10.415C13.8904 10.5899 13.9598 10.7575 14.0835 10.8811C14.2071 11.0048 14.3747 11.0742 14.5496 11.0742H27.5301C28.3994 11.0435 28.4064 9.78398 27.5301 9.75586Z" fill="#000E38"/>
    <path d="M32.3008 7.26501H27.0915C26.2205 7.29402 26.2179 8.55261 27.0915 8.58337H32.3008C32.4756 8.58337 32.6433 8.51392 32.7669 8.3903C32.8905 8.26668 32.96 8.09902 32.96 7.92419C32.96 7.74937 32.8905 7.5817 32.7669 7.45808C32.6433 7.33446 32.4756 7.26501 32.3008 7.26501Z" fill="#000E38"/>
    <path d="M33.8056 4.51404H12.87C12.1521 4.51474 11.4637 4.80026 10.956 5.30794C10.4483 5.81562 10.1628 6.50398 10.1621 7.22195V11.4583C10.1628 12.1762 10.4483 12.8646 10.956 13.3723C11.4637 13.88 12.1521 14.1655 12.87 14.1662H14.7605L15.9664 16.926C16.018 17.0433 16.1026 17.143 16.2099 17.213C16.3172 17.2831 16.4425 17.3204 16.5707 17.3204C16.6988 17.3204 16.8241 17.2831 16.9314 17.213C17.0387 17.143 17.1233 17.0433 17.1749 16.926L18.3808 14.1662H33.8056C34.5234 14.1653 35.2115 13.8796 35.719 13.372C36.2265 12.8643 36.5119 12.1761 36.5126 11.4583V7.22195C36.5119 6.50413 36.2265 5.8159 35.719 5.30825C35.2115 4.80059 34.5234 4.51497 33.8056 4.51404ZM35.1942 11.4574C35.194 11.8257 35.0476 12.1789 34.7873 12.4394C34.5269 12.6999 34.1739 12.8465 33.8056 12.8469H17.9501C17.8219 12.847 17.6965 12.8845 17.5892 12.9547C17.482 13.025 17.3976 13.125 17.3463 13.2425L16.5711 15.0152L15.7959 13.2425C15.7444 13.125 15.6598 13.025 15.5524 12.9548C15.445 12.8845 15.3195 12.8471 15.1912 12.8469H12.87C12.5016 12.8467 12.1483 12.7002 11.8877 12.4397C11.6272 12.1792 11.4807 11.8259 11.4805 11.4574V7.22195C11.4807 6.85349 11.6272 6.50019 11.8877 6.23964C12.1483 5.9791 12.5016 5.83263 12.87 5.8324H33.8056C34.1739 5.83286 34.5269 5.97944 34.7873 6.23995C35.0476 6.50047 35.194 6.85364 35.1942 7.22195V11.4574Z" fill="#000E38"/>
    <path d="M38.0049 26.6414C35.3514 26.2486 29.9594 17.7706 27.2418 18.0334C25.7907 18.0334 25.0902 18.6662 24.5277 19.176C24.0883 19.5759 23.8307 19.7851 23.3377 19.7851C22.8446 19.7851 22.588 19.5741 22.1485 19.1742C21.586 18.6662 20.8855 18.0317 19.4345 18.0317C16.7204 17.768 11.3195 26.2486 8.67225 26.6397C7.80917 26.6669 7.78895 27.9229 8.67225 27.958C9.67596 27.958 10.3299 28.9248 11.3969 30.6334C12.2942 32.0652 13.4104 33.8476 15.2306 35.2468C19.1638 38.4987 27.5081 38.4987 31.4403 35.2468C33.2605 33.8476 34.3776 32.0652 35.2741 30.6334C36.3446 28.9248 36.9994 27.958 38.0031 27.958C38.8671 27.9343 38.8864 26.6748 38.0049 26.6414ZM34.1588 29.9356C32.364 32.7999 30.1307 36.3648 23.3377 36.3648C16.5446 36.3648 14.3104 32.7999 12.5157 29.9356C12.1527 29.3555 11.8064 28.8027 11.4408 28.3201H15.4952C16.3328 28.3201 17.4666 28.887 18.6672 29.4864C22.5493 31.5264 24.1287 31.5246 28.0073 29.4864C29.2079 28.887 30.3426 28.3201 31.1793 28.3201H35.2337C34.8689 28.8027 34.5218 29.3555 34.1588 29.9356ZM18.7902 28.0749C20.2334 27.8069 20.8723 27.3656 21.4269 26.9833C21.9376 26.6318 22.2742 26.3953 23.3421 26.3953C24.4099 26.3953 24.7483 26.6291 25.2563 26.9833C25.8074 27.3656 26.4464 27.8069 27.8887 28.0749C23.7033 30.2388 22.9677 30.2344 18.7902 28.0749ZM31.1828 27.0018C25.0305 27.0378 26.964 25.1868 23.3412 25.077C21.8611 25.077 21.2582 25.4953 20.6746 25.8996C19.9671 26.3909 19.0864 27.0018 15.4987 27.0018H10.8704C11.991 26.1589 13.2276 24.8485 14.5723 23.422C16.2827 21.6088 18.4097 19.3518 19.4327 19.3518C20.3766 19.3518 20.7678 19.7033 21.2635 20.1525C22.53 21.426 24.1489 21.4216 25.4119 20.1525C25.9067 19.7051 26.2978 19.3518 27.2418 19.3518C28.2648 19.3518 30.3927 21.6088 32.1021 23.422C33.4469 24.8485 34.6835 26.1589 35.8041 27.0018H31.1828Z" fill="#000E38"/>
</svg>