<svg xmlns="http://www.w3.org/2000/svg" width="40" height="40" viewBox="0 0 40 40">
    <defs>
        <filter id="mt13ui32aa">
            <feColorMatrix in="SourceGraphic" values="0 0 0 0 1.000000 0 0 0 0 1.000000 0 0 0 0 1.000000 0 0 0 1.000000 0"/>
        </filter>
    </defs>
    <g fill="none" fill-rule="evenodd">
        <g>
            <g transform="translate(-140 -226) translate(140 226)">
                <circle cx="20" cy="20" r="20" fill="#E0E4ED"/>
                <g filter="url(#mt13ui32aa)">
                    <g>
                        <path fill="#FFFFFF" d="M2.5 7.5v5h3.333L10 16.667V3.333L5.833 7.5H2.5zM13.75 10c0-1.475-.85-2.742-2.083-3.358v6.708c1.233-.608 2.083-1.875 2.083-3.35zm-2.083-7.308v1.716c2.408.717 4.166 2.95 4.166 5.592 0 2.642-1.758 4.875-4.166 5.592v1.716C15.008 16.55 17.5 13.567 17.5 10c0-3.567-2.492-6.55-5.833-7.308z" transform="translate(10 10)"/>
                    </g>
                </g>
            </g>
        </g>
    </g>
</svg>
