<svg xmlns="http://www.w3.org/2000/svg" width="124" height="100" viewBox="0 0 124 100">
    <defs>
        <filter id="ezx74xqexa">
            <feColorMatrix in="SourceGraphic" values="0 0 0 0 0.976471 0 0 0 0 0.980392 0 0 0 0 0.984314 0 0 0 1.000000 0"/>
        </filter>
    </defs>
    <g fill="none" fill-rule="evenodd">
        <g>
            <g>
                <g>
                    <g>
                        <path fill="#97AEF1" d="M49.536 15.037c4.122 0 7.464-3.346 7.464-7.474S53.658.088 49.536.088c-4.123 0-7.465 3.347-7.465 7.475s3.342 7.474 7.465 7.474M28.997 51.73c-3.272 0-5.926-2.658-5.926-5.936s2.654-5.935 5.926-5.935c7.438 0 13.823-5.552 14.852-12.915.454-3.245 3.45-5.509 6.69-5.054 3.24.454 5.5 3.454 5.046 6.701C53.74 41.781 42.31 51.73 28.997 51.73" transform="translate(-98 -234) translate(98.986 234) translate(0 1.27) translate(34)"/>
                        <path fill="#425BEE" d="M28.011 51.73c-13.516 0-24.956-10.021-26.609-23.31-.4-3.217 1.905-6.146 5.148-6.543 3.247-.399 6.198 1.889 6.598 5.106.922 7.416 7.312 13.01 14.863 13.01 3.268 0 5.918 2.627 5.918 5.868 0 3.241-2.65 5.868-5.918 5.868M7.5 15c4.142 0 7.5-3.358 7.5-7.5C15 3.358 11.642 0 7.5 0 3.358 0 0 3.358 0 7.5 0 11.642 3.358 15 7.5 15" transform="translate(-98 -234) translate(98.986 234) translate(0 1.27) translate(34)"/>
                    </g>
                    <g filter="url(#ezx74xqexa)" transform="translate(-98 -234) translate(98.986 234) translate(0 1.27)">
                        <g>
                            <path fill="#F9FAFB" d="M21.651 1.364l7.26.013-.001.137v.075l-.001.45v.484l-.001.187v.408c-.006 2.585-.014 7.552-.019 11.442v.637l-.001.31v.602l-.001.29v.822l-.001.256v1.327c0 2.188 1.897 3.969 4.23 3.969 2.332 0 4.23-1.781 4.23-3.97V1.37h7.258v17.434C44.604 24.978 39.451 30 33.116 30s-11.49-5.022-11.49-11.196v-1.328l.001-.256v-.823l.001-.29v-.602l.001-.31v-.639l.019-11.45v-.409l.001-.186.001-.484v-.135l.001-.391v-.137zm91.86 0c1.514 0 3.048.297 4.603.892 1.554.595 2.94 1.53 4.156 2.804l-3.487 4.588c-.892-.65-1.75-1.147-2.575-1.487-.824-.34-1.723-.51-2.697-.51-.865 0-1.54.157-2.027.468-.486.312-.73.78-.73 1.402 0 .652.345 1.155 1.034 1.508.69.355 1.643.772 2.859 1.254l3.203 1.317c1.649.68 2.92 1.629 3.812 2.846.892 1.219 1.338 2.79 1.338 4.717 0 1.162-.23 2.28-.69 3.356-.46 1.077-1.128 2.018-2.006 2.825-.88.809-1.954 1.452-3.224 1.934-1.271.482-2.73.722-4.38.722-1.676 0-3.4-.319-5.169-.956-1.771-.638-3.373-1.635-4.806-2.995l3.974-5.013c.946.793 1.967 1.437 3.062 1.932 1.095.497 2.128.744 3.102.744 1.055 0 1.817-.17 2.29-.51.473-.34.711-.82.711-1.445 0-.34-.082-.622-.244-.85-.162-.225-.399-.438-.71-.637-.31-.198-.683-.388-1.115-.573-.433-.184-.932-.39-1.5-.616l-3.285-1.445c-.703-.283-1.378-.658-2.027-1.126-.649-.467-1.216-1.02-1.703-1.656-.487-.637-.872-1.367-1.156-2.189-.284-.821-.426-1.727-.426-2.72 0-1.188.244-2.3.73-3.334.487-1.034 1.162-1.94 2.028-2.72.864-.778 1.899-1.395 3.102-1.848 1.202-.453 2.52-.68 3.953-.68zm-15.25 0v6.042H88.127v4.28h8.663v6.041h-8.663v4.867H98.67v6.042H81.1V1.364H98.26zM61.5 0c6.336 0 11.49 5.022 11.49 11.196v.193l-.001 1.657v.847l-.001.298v.614l-.001.317-.001.648-.015 9.648-.001.53-.002 1.156v.385l-.001.175v.444l-.001.12v.408l-7.26-.013v-.212l.001-.09.001-.51v-.52l.002-.63v-.473c.005-2.465.012-6.384.016-9.755v-.666l.002-.964v-.615l.001-.297v-.846l.001-.266v-1.583c0-2.188-1.897-3.968-4.23-3.968-2.332 0-4.23 1.78-4.23 3.968v17.433h-7.258V11.196C50.011 5.022 55.165 0 61.499 0zM7.23 1.364v21.231h10.341v6.041H0V1.364h7.23z" transform="translate(0 68.73)"/>
                        </g>
                    </g>
                </g>
            </g>
        </g>
    </g>
</svg>
